<svg id="Layer_1" data-name="Layer 1" xmlns="http://www.w3.org/2000/svg" viewBox="0 0 550 325.16"><defs><style>.cls-1{fill:#7b6f6b;}.cls-2{fill:#b39f6c;}.cls-3{fill:#9c9484;}.cls-4{fill:#878787;}</style></defs><title>bkm</title><path class="cls-1" d="M90.51,207.84H67.33v26H91c5.41,0,9.3-.85,11.84-2.71,2.54-2,3.72-5.41,3.72-10.66,0-4.56-1.18-7.78-3.72-9.81C100.49,208.85,96.26,207.84,90.51,207.84Z" transform="translate(0 -112.42)"/><path class="cls-1" d="M100.32,187.2c2.2-1.86,3.22-4.91,3.22-9.14s-1.19-7.27-3.39-9-5.92-2.53-11-2.53H67.5V189.9H89.83C94.57,189.9,98.12,189.06,100.32,187.2Z" transform="translate(0 -112.42)"/><path class="cls-1" d="M0,112.42v175.1H175.1V112.42Zm130.94,123a25.38,25.38,0,0,1-7.61,9.82,37.06,37.06,0,0,1-13.19,6.26,80,80,0,0,1-19.29,2.19H41.62V146.42H90.17c13,0,22.84,2.37,29.27,7.28s9.64,11.5,9.64,20.13c0,6.09-1.52,10.83-4.4,14.72a25,25,0,0,1-11.5,8.29v.34c13.53,3.38,20.13,11.84,20.13,25.37A28.5,28.5,0,0,1,130.94,235.41Z" transform="translate(0 -112.42)"/><path class="cls-2" d="M186.43,112.42v175.1H361.54V112.42ZM291.66,253.51l-28.59-45.17H250.89v45.17h-26V146.42h26v42.47h12.52l27.92-42.47H321.1l-34.51,50.93L323,253.68h-31.3v-.17Z" transform="translate(0 -112.42)"/><path class="cls-3" d="M374.9,112.42v175.1H550V112.42ZM526.65,253.51H501.28V199l.33-11.51-.5-.16-4.57,10.82-25.38,55.49H452.72l-25.21-55.32L423,187.54l-.34.16.17,11.51v54.47H398.25V146.42h30.62L457.46,209,462,219.68h.51L467.1,209l28.76-62.6h30.62V253.51Z" transform="translate(0 -112.42)"/><path class="cls-4" d="M38.06,343.86a10.37,10.37,0,0,1-1.18,5.24A12.07,12.07,0,0,1,33.67,353a18.06,18.06,0,0,1-4.74,2.54,21.37,21.37,0,0,1-5.75.85H0V308H25a10.07,10.07,0,0,1,4.57,1,11.61,11.61,0,0,1,3.55,2.87,13,13,0,0,1,2.2,3.89,14.4,14.4,0,0,1,.85,4.4,12.91,12.91,0,0,1-1.87,6.6,11.1,11.1,0,0,1-5.07,4.57,13.75,13.75,0,0,1,6.6,4.39A16.23,16.23,0,0,1,38.06,343.86ZM7.61,314.59V328.8h14a7,7,0,0,0,2.71-.51,6.4,6.4,0,0,0,2.2-1.52,5.81,5.81,0,0,0,1.35-2.2,7.85,7.85,0,0,0,.51-2.88,7.09,7.09,0,0,0-1.69-5.07,5.77,5.77,0,0,0-4.57-2ZM30.28,342.5a8,8,0,0,0-.5-2.87,10.77,10.77,0,0,0-1.36-2.37,6.59,6.59,0,0,0-2-1.69,7,7,0,0,0-2.71-.68H7.61v14.89H23.18a8.52,8.52,0,0,0,2.87-.51,5.21,5.21,0,0,0,2.2-1.52,5.67,5.67,0,0,0,1.52-2.37A8.58,8.58,0,0,0,30.28,342.5Z" transform="translate(0 -112.42)"/><path class="cls-4" d="M59.38,308h6.77l19.12,48.39H77.15l-5.08-13.2H53.29l-5.07,13.2H40.1Zm11,29.61L62.6,316.79,54.47,337.6Z" transform="translate(0 -112.42)"/><path class="cls-4" d="M98.8,322.2v34.18H91.19V308h6.09L125,343V308.16h7.78v48.38h-6.42Z" transform="translate(0 -112.42)"/><path class="cls-4" d="M143.46,356.38V308h7.62v24.87l22.84-25h8.45l-19.11,21.49,20.13,27.06h-8.46L158.52,334l-7.44,7.78v14.55h-7.62Z" transform="translate(0 -112.42)"/><path class="cls-4" d="M202.85,308h6.76l19.12,48.39h-8.12l-5.08-13.2H196.75l-5.07,13.2h-8.12Zm11,29.61-7.78-20.81-8.12,20.81Z" transform="translate(0 -112.42)"/><path class="cls-4" d="M234.65,356.38V308h7.61v41.62h26.06v6.77Z" transform="translate(0 -112.42)"/><path class="cls-4" d="M288.79,308h6.76l19.12,48.39h-8.12l-5.07-13.2H282.7l-5.08,13.2H269.5Zm11,29.61L292,316.79l-8.12,20.81Z" transform="translate(0 -112.42)"/><path class="cls-4" d="M320.59,356.38V308h21.15a14.68,14.68,0,0,1,6.09,1.35,14,14,0,0,1,4.74,3.56,15.51,15.51,0,0,1,3,5.07,17.38,17.38,0,0,1,1.19,5.75,14.51,14.51,0,0,1-.68,4.74,18.82,18.82,0,0,1-1.86,4.23,14.73,14.73,0,0,1-3.05,3.39,9.45,9.45,0,0,1-3.89,2l11.34,18.44H350l-10.49-16.91H328.21v16.91h-7.62Zm7.62-23.69h13.36a6.63,6.63,0,0,0,3.05-.68,8.84,8.84,0,0,0,2.37-2,9.54,9.54,0,0,0,1.52-2.87,11.24,11.24,0,0,0,.51-3.56,8.27,8.27,0,0,0-.68-3.55,16.63,16.63,0,0,0-1.69-2.88,5.63,5.63,0,0,0-2.54-1.86,6.07,6.07,0,0,0-2.88-.67h-13Z" transform="translate(0 -112.42)"/><path class="cls-4" d="M379.13,308h6.77L405,356.38h-8.12l-5.07-13.2H373L368,356.38h-8.12ZM390.3,337.6l-7.79-20.81-8.12,20.81Z" transform="translate(0 -112.42)"/><path class="cls-4" d="M410.94,356.38V308h21.14a14.68,14.68,0,0,1,6.09,1.35,13.84,13.84,0,0,1,4.74,3.56,15.71,15.71,0,0,1,3,5.07,17.62,17.62,0,0,1,1.18,5.75,14.51,14.51,0,0,1-.68,4.74,18.38,18.38,0,0,1-1.86,4.23,14.69,14.69,0,0,1-3,3.39,9.58,9.58,0,0,1-3.89,2L449,356.54h-8.63l-10.49-16.91H418.72v16.91h-7.78v-.16Zm7.61-23.69h13.36a6.63,6.63,0,0,0,3-.68,8.84,8.84,0,0,0,2.37-2,9.54,9.54,0,0,0,1.52-2.87,11.24,11.24,0,0,0,.51-3.56,8.27,8.27,0,0,0-.68-3.55,16.63,16.63,0,0,0-1.69-2.88,5.58,5.58,0,0,0-2.54-1.86,6,6,0,0,0-2.87-.67h-13v18.1Z" transform="translate(0 -112.42)"/><path class="cls-4" d="M469.64,308h6.77l19.12,48.39h-8.12l-5.08-13.2H463.55l-5.08,13.2h-8.12Zm11.17,29.61L473,316.79,464.9,337.6Z" transform="translate(0 -112.42)"/><path class="cls-4" d="M529.36,319.32a11.26,11.26,0,0,0-2-1.52,13.15,13.15,0,0,0-3.05-1.52,20.11,20.11,0,0,0-3.89-1.18,17.93,17.93,0,0,0-4.23-.51c-3.21,0-5.58.51-7.1,1.69a6,6,0,0,0-2.37,4.91,4.82,4.82,0,0,0,.68,2.87,8.29,8.29,0,0,0,2.2,2,26.46,26.46,0,0,0,3.72,1.52c1.52.51,3.21.85,5.24,1.36a30.27,30.27,0,0,1,6.6,2,28.68,28.68,0,0,1,5.08,2.7,12.11,12.11,0,0,1,3.21,3.9,13.54,13.54,0,0,1,1.19,5.58,15,15,0,0,1-1.36,6.43,12.24,12.24,0,0,1-3.89,4.4,20.8,20.8,0,0,1-5.58,2.53,29.84,29.84,0,0,1-6.94.85,32.13,32.13,0,0,1-10.66-1.69,30.79,30.79,0,0,1-9.3-4.91l3.55-6.6c.51.51,1.52,1.19,2.54,2a38.55,38.55,0,0,0,3.89,2,22.07,22.07,0,0,0,4.74,1.53,19.25,19.25,0,0,0,5.41.67,13.14,13.14,0,0,0,6.94-1.52,5,5,0,0,0,2.54-4.57,5.8,5.8,0,0,0-.85-3,9,9,0,0,0-2.71-2.2,19.39,19.39,0,0,0-4.23-1.69q-2.54-.76-5.58-1.52c-2.37-.68-4.57-1.36-6.26-2a13.93,13.93,0,0,1-4.4-2.54,10,10,0,0,1-3.55-8.46,14.87,14.87,0,0,1,1.35-6.26,12.38,12.38,0,0,1,3.73-4.57,17.28,17.28,0,0,1,5.58-2.87,22.83,22.83,0,0,1,6.94-1,27.33,27.33,0,0,1,9.13,1.52,29.68,29.68,0,0,1,7.27,3.89Z" transform="translate(0 -112.42)"/><path class="cls-4" d="M542.39,356.38V308H550v48.39Z" transform="translate(0 -112.42)"/><path class="cls-4" d="M0,437.58V381.41H8.8v28.93l26.39-28.93H45L22.84,406.28l23.35,31.3H36.37L17.43,411.7l-8.63,9v16.92Z" transform="translate(0 -112.42)"/><path class="cls-4" d="M68.69,381.41h7.78l22.16,56.17h-9.3l-5.92-15.23H61.58l-5.92,15.23H46.19Zm12.85,34.35-9-24.19-9.31,24.19Z" transform="translate(0 -112.42)"/><path class="cls-4" d="M105.57,437.58V381.41h24.36a15.55,15.55,0,0,1,6.94,1.52,14.67,14.67,0,0,1,5.41,4.24,18.94,18.94,0,0,1,3.55,5.92,18.28,18.28,0,0,1,1.36,6.59,19,19,0,0,1-.85,5.42,15.08,15.08,0,0,1-2.2,4.73,15.41,15.41,0,0,1-3.55,3.9,14.59,14.59,0,0,1-4.57,2.36l13.2,21.32h-10L127.05,418H114v19.46h-8.46v.17Zm8.79-27.41h15.57a7.64,7.64,0,0,0,3.38-.84A8.92,8.92,0,0,0,136,407a10.61,10.61,0,0,0,1.69-3.38,14.53,14.53,0,0,0,.68-4.06,11.37,11.37,0,0,0-.68-4.07,13.62,13.62,0,0,0-2-3.38,7.33,7.33,0,0,0-2.87-2.2,7.69,7.69,0,0,0-3.39-.84h-15v21.14Z" transform="translate(0 -112.42)"/><path class="cls-4" d="M198.11,389.2H179.5v48.21h-9V389.2H151.75v-7.79h46.36v7.79Z" transform="translate(0 -112.42)"/><path class="cls-4" d="M270.18,437.58V397.15l-16.75,30.62h-4.91l-16.75-30.62v40.43H223V381.41h9.47l18.61,34.35,18.61-34.35h9.47v56.17Z" transform="translate(0 -112.42)"/><path class="cls-4" d="M330.24,429.63v7.78H291.66v-56h37.73v7.79H300.46v15.9h25v7.27h-25v17.09h29.78Z" transform="translate(0 -112.42)"/><path class="cls-4" d="M339.37,437.58V381.41h24.36a15.55,15.55,0,0,1,6.94,1.52,14.67,14.67,0,0,1,5.41,4.24,19,19,0,0,1,3.56,5.92,18.48,18.48,0,0,1,1.35,6.59,19.37,19.37,0,0,1-.84,5.42,17.3,17.3,0,0,1-5.76,8.63,14.54,14.54,0,0,1-4.56,2.36L383,437.41H373L360.86,418h-13v19.46h-8.46v.17Zm8.8-27.41h15.56a7.69,7.69,0,0,0,3.39-.84,8.89,8.89,0,0,0,2.7-2.37,10.63,10.63,0,0,0,1.7-3.38,14.91,14.91,0,0,0,.67-4.06,11.59,11.59,0,0,0-.67-4.07,14.25,14.25,0,0,0-2-3.38,7.44,7.44,0,0,0-2.88-2.2,7.68,7.68,0,0,0-3.38-.84H348.17v21.14Z" transform="translate(0 -112.42)"/><path class="cls-4" d="M391.65,437.58V381.41h8.8v28.93l26.39-28.93h9.81l-22.16,24.7,23.35,31.3H428l-18.94-25.88-8.63,9v16.92h-8.8v.17Z" transform="translate(0 -112.42)"/><path class="cls-4" d="M482.33,429.63v7.78H443.76v-56h37.72v7.79H452.55v15.9h25v7.27h-25v17.09h29.78Z" transform="translate(0 -112.42)"/><path class="cls-4" d="M487.57,430.64l34-41.44H488.25v-7.79H531.9v6.77l-33.33,41.45H531.9v7.78H487.4v-6.77Z" transform="translate(0 -112.42)"/><path class="cls-4" d="M541.2,437.58V381.41H550v56.17Zm.34-63.44V365h7.78v9.14Z" transform="translate(0 -112.42)"/></svg>