<svg id="Layer_1" data-name="Layer 1" xmlns="http://www.w3.org/2000/svg" xmlns:xlink="http://www.w3.org/1999/xlink" viewBox="0 0 875 139"><defs><style>.cls-1{fill:#072982;}.cls-2{fill:url(#linear-gradient);}.cls-3{fill:#fff;}.cls-4{fill:#ecbc53;}</style><linearGradient id="linear-gradient" x1="0.54" y1="67.98" x2="132.86" y2="67.98" gradientUnits="userSpaceOnUse"><stop offset="0" stop-color="#072982"/><stop offset="1" stop-color="#2256b2"/></linearGradient></defs><path class="cls-1" d="M235.5,87.19a24.33,24.33,0,0,1-15.56,23.61q-7.62,3.28-18.47,3.29a67,67,0,0,1-9.37-.64,60.66,60.66,0,0,1-8.78-1.86,51.48,51.48,0,0,1-8-3.06V90.35q6.56,2.91,13.63,5.24a44.46,44.46,0,0,0,14,2.34,19.69,19.69,0,0,0,7.73-1.27A8.79,8.79,0,0,0,215,93.19a9.57,9.57,0,0,0,1.33-5A8.3,8.3,0,0,0,214,82.21a24.52,24.52,0,0,0-6.41-4.61q-4.06-2.14-9.18-4.61c-2.15-1-4.48-2.24-7-3.69a40.39,40.39,0,0,1-7.2-5.34,25.24,25.24,0,0,1-5.58-7.67,24.71,24.71,0,0,1-2.18-10.82,25.46,25.46,0,0,1,3.79-14.14,24.07,24.07,0,0,1,10.82-9,40.84,40.84,0,0,1,16.64-3.12,54.94,54.94,0,0,1,13.73,1.67,86.93,86.93,0,0,1,13.67,4.83l-6.32,15.21a112.69,112.69,0,0,0-11.42-4A38.13,38.13,0,0,0,207,35.49a15.09,15.09,0,0,0-6.25,1.17,8.7,8.7,0,0,0-3.92,3.28,9.05,9.05,0,0,0-1.32,4.9,8.19,8.19,0,0,0,1.92,5.52,20.37,20.37,0,0,0,5.81,4.32q3.89,2.09,9.69,4.86a77.61,77.61,0,0,1,12.09,7A26.18,26.18,0,0,1,232.78,75,24.76,24.76,0,0,1,235.5,87.19Z"/><path class="cls-1" d="M315.48,42.25v70.57H300.71l-2.59-9h-1a19.54,19.54,0,0,1-5.68,5.87,24.7,24.7,0,0,1-7.51,3.34,33.41,33.41,0,0,1-8.53,1.08,30.3,30.3,0,0,1-13.19-2.69,19.24,19.24,0,0,1-8.74-8.36q-3.14-5.69-3.13-14.77v-46h19.26V83.47q0,7.57,2.71,11.43T281,98.75q5.87,0,9.22-2.69a14.42,14.42,0,0,0,4.7-7.89,51.36,51.36,0,0,0,1.36-12.72V42.25Z"/><path class="cls-1" d="M375.77,40.92q11.3,0,18.18,6.16t6.88,19.72v46H381.57V71.6q0-7.57-2.74-11.42t-8.62-3.86q-8.83,0-12.06,6t-3.22,17.3v33.2H335.68V42.25h14.71l2.59,9h1.07a19.44,19.44,0,0,1,5.65-5.93A24.28,24.28,0,0,1,367.21,42,33.75,33.75,0,0,1,375.77,40.92Z"/><path class="cls-1" d="M443,114.09a23.54,23.54,0,0,1-19.23-9.25q-7.41-9.25-7.41-27.18,0-18.12,7.51-27.43a24,24,0,0,1,19.63-9.31,26,26,0,0,1,8.9,1.39A21.93,21.93,0,0,1,459.06,46a25.06,25.06,0,0,1,4.77,5.23h.63q-.37-2-.92-6A61.5,61.5,0,0,1,463,37.2V14.6h19.31v98.22H467.55l-3.72-9.15H463a23.45,23.45,0,0,1-4.58,5.27,21,21,0,0,1-6.53,3.76A26,26,0,0,1,443,114.09Zm6.75-15.34q7.89,0,11.14-4.71t3.44-14.17V77.79q0-10.29-3.15-15.75t-11.74-5.46a11.31,11.31,0,0,0-10,5.49q-3.6,5.49-3.6,15.84t3.63,15.6A11.76,11.76,0,0,0,449.75,98.75Z"/><path class="cls-1" d="M567.23,42.25v70.57H552.46l-2.59-9h-1a19.54,19.54,0,0,1-5.68,5.87,24.7,24.7,0,0,1-7.51,3.34,33.41,33.41,0,0,1-8.53,1.08A30.3,30.3,0,0,1,514,111.4a19.24,19.24,0,0,1-8.74-8.36q-3.13-5.69-3.13-14.77v-46h19.26V83.47q0,7.57,2.71,11.43t8.65,3.85q5.87,0,9.22-2.69a14.42,14.42,0,0,0,4.7-7.89A51.36,51.36,0,0,0,548,75.45V42.25Z"/><path class="cls-1" d="M636.67,91.87A21.11,21.11,0,0,1,633.29,104a20.7,20.7,0,0,1-10.07,7.51q-6.69,2.55-16.66,2.56a72.81,72.81,0,0,1-12.66-1A51.79,51.79,0,0,1,583.26,110V94.07a74.74,74.74,0,0,0,12.35,4.27A48.06,48.06,0,0,0,607.19,100c3.74,0,6.43-.56,8-1.67A5.12,5.12,0,0,0,617.67,94a5.52,5.52,0,0,0-1-3.19,12.74,12.74,0,0,0-4.2-3.22,108.1,108.1,0,0,0-10.1-4.7,65.53,65.53,0,0,1-10.89-5.62,18.53,18.53,0,0,1-6.31-6.72,21,21,0,0,1-2.05-9.88q0-9.79,7.6-14.74t20.36-5a57.16,57.16,0,0,1,12.53,1.33,60.75,60.75,0,0,1,12.28,4.23L630.1,60.36a100.88,100.88,0,0,0-9.88-3.72,31.29,31.29,0,0,0-9.43-1.45,14.16,14.16,0,0,0-6.38,1.13,3.7,3.7,0,0,0-2.14,3.48,4.6,4.6,0,0,0,1.1,3,14.13,14.13,0,0,0,4.29,2.93c2.13,1.08,5.25,2.45,9.38,4.14A74.28,74.28,0,0,1,627.45,75a19.81,19.81,0,0,1,6.82,6.63A19.4,19.4,0,0,1,636.67,91.87Z"/><rect class="cls-2" x="0.54" y="5.09" width="132.32" height="125.79" rx="15.95"/><polygon class="cls-3" points="35.61 38.08 45.94 60.03 71.44 69.39 46.58 78.75 35.61 101.02 35.61 38.08"/><polygon class="cls-4" points="37.87 34.21 49.16 57.77 80.15 69.23 48.52 82.95 37.87 102.31 111.14 63.58 37.87 34.21"/><path class="cls-4" d="M682.82,20.48q17.86,0,26.07,7.67t8.21,21.12a36.56,36.56,0,0,1-1.83,11.58,25.6,25.6,0,0,1-6,9.82,28.42,28.42,0,0,1-11,6.78,50,50,0,0,1-17,2.5h-8.4v32.82H653.34V20.48Zm-1,16h-8.9V63.91h6.44a28.13,28.13,0,0,0,9.53-1.45,12.73,12.73,0,0,0,6.25-4.54,13.42,13.42,0,0,0,2.21-8q0-6.81-3.79-10.13T681.81,36.52Z"/><path class="cls-4" d="M761.92,40.75q14.21,0,21.78,6.18t7.57,18.81v47H777.83l-3.73-9.59h-.5a35.38,35.38,0,0,1-6.19,6.18,21,21,0,0,1-7.26,3.54,37.67,37.67,0,0,1-10,1.14,25.41,25.41,0,0,1-11.21-2.4,17.73,17.73,0,0,1-7.79-7.36q-2.85-4.95-2.84-12.59,0-11.23,7.89-16.57t23.67-5.9l12.25-.38v-3.1q0-5.55-2.91-8.14c-1.93-1.72-4.63-2.59-8.08-2.59a35.52,35.52,0,0,0-10,1.45,76.59,76.59,0,0,0-9.85,3.67l-6.38-13a54.68,54.68,0,0,1,12.6-4.67A60.24,60.24,0,0,1,761.92,40.75Zm10.23,39.32-7.45.26q-9.35.26-13,3.34a10.18,10.18,0,0,0-3.63,8.15c0,2.94.87,5,2.59,6.28a11.34,11.34,0,0,0,6.76,1.86,15.49,15.49,0,0,0,10.45-3.66q4.26-3.66,4.26-10.42Z"/><path class="cls-4" d="M801,42.2h21.08L835.4,81.9a39.36,39.36,0,0,1,1.07,3.86c.3,1.3.55,2.65.76,4s.38,2.84.51,4.35h.37a58.79,58.79,0,0,1,1-6.37,51.55,51.55,0,0,1,1.67-5.88L853.9,42.2h20.64l-29.86,79.6A38.22,38.22,0,0,1,837.61,134a28.57,28.57,0,0,1-10,7.35,30.71,30.71,0,0,1-12.4,2.46,39,39,0,0,1-5.68-.35q-2.4-.34-4.11-.72V127.48a32.71,32.71,0,0,0,3.35.57,33.88,33.88,0,0,0,4.23.25,13.52,13.52,0,0,0,6.94-1.7,15,15,0,0,0,4.86-4.58,25.18,25.18,0,0,0,3.1-6.28l1.13-3.47Z"/></svg>