<svg id="OBJECTS" xmlns="http://www.w3.org/2000/svg" viewBox="0 0 444.26 254.1"><defs><style>.cls-1{fill:#d4e3fc;}.cls-2,.cls-24{fill:#42cc5c;}.cls-3{fill:none;}.cls-13,.cls-14,.cls-15,.cls-24,.cls-25,.cls-3,.cls-4,.cls-5,.cls-6{stroke:#262d38;stroke-linecap:round;stroke-linejoin:round;stroke-width:0.75px;}.cls-20,.cls-4{fill:#ccd9ea;}.cls-5{fill:#f9c764;}.cls-6{fill:#eab53d;}.cls-7{font-size:22.17px;font-family:Prompt-Regular, Prompt;}.cls-10,.cls-7{fill:#262d38;}.cls-8{letter-spacing:-0.02em;}.cls-9{letter-spacing:-0.07em;}.cls-11,.cls-15{fill:#a59b9b;}.cls-12,.cls-14{fill:#bfbbbb;}.cls-13,.cls-22{fill:#ed443b;}.cls-16{fill:#3d84ea;}.cls-17{fill:#2d6dba;}.cls-18{fill:#4894ef;}.cls-19{fill:#ff5b57;}.cls-21{fill:#dde8f2;}.cls-23{fill:#35b74b;}.cls-25{fill:#3dea62;}</style></defs><path class="cls-1" d="M178.38,81.68H145.2a6.14,6.14,0,0,1-6.14-6.14h0a6.14,6.14,0,0,0-6.14-6.14H72.75A10.47,10.47,0,0,0,62.28,79.87h0A10.47,10.47,0,0,1,51.81,90.34H23.44a6.14,6.14,0,0,0-6.14,6.14h0a6.14,6.14,0,0,0,6.14,6.14h99.45a4.31,4.31,0,0,0,4.32-4.32h0A4.33,4.33,0,0,1,131.54,94h46.84a6.14,6.14,0,0,0,6.14-6.14h0A6.14,6.14,0,0,0,178.38,81.68Z"/><path class="cls-1" d="M434.09,53.36h0a6.15,6.15,0,0,0-6.15-6.14H294.67a6.14,6.14,0,0,0-6.15,6.14h0a6.14,6.14,0,0,1-6.14,6.15H264.11A6.14,6.14,0,0,0,258,65.65h0a6.14,6.14,0,0,0,6.15,6.14h8.5a6.14,6.14,0,0,1,6.14,6.15h0a6.14,6.14,0,0,0,6.15,6.14H399.69a6.14,6.14,0,0,0,6.15-6.14h0a6.15,6.15,0,0,0-6.15-6.15h-8.5A6.14,6.14,0,0,1,385,65.65h0a6.14,6.14,0,0,1,6.15-6.14h36.75A6.15,6.15,0,0,0,434.09,53.36Z"/><path class="cls-2" d="M199.22,127h0a7.08,7.08,0,0,1-7.08-7.08V81H206.3v38.94A7.08,7.08,0,0,1,199.22,127Z"/><path class="cls-3" d="M199.22,127h0a7.08,7.08,0,0,1-7.08-7.08V81H206.3v38.94A7.08,7.08,0,0,1,199.22,127Z"/><polyline class="cls-3" points="199.22 81 199.22 71.63 231.02 53.36 231.02 34.56 226.9 34.56"/><rect class="cls-4" x="171.73" y="29.65" width="54.98" height="9.83"/><line class="cls-3" x1="199.22" y1="84.76" x2="199.22" y2="122.62"/><line class="cls-3" x1="195.44" y1="84.76" x2="195.44" y2="119.81"/><line class="cls-3" x1="202.99" y1="84.76" x2="202.99" y2="119.81"/><rect class="cls-5" x="216.92" y="164.83" width="181.8" height="8.85"/><rect class="cls-6" x="398.72" y="164.83" width="11.25" height="8.85"/><rect class="cls-5" x="225.04" y="67.72" width="165.56" height="97.1"/><rect class="cls-6" x="390.6" y="67.72" width="4.69" height="97.1"/><text class="cls-7" transform="translate(273.09 122.97)"><tspan class="cls-8">C</tspan><tspan class="cls-9" x="15.19" y="0">A</tspan><tspan x="30.28" y="0">UTION</tspan></text><polygon class="cls-10" points="225.04 95.34 225.04 140.4 251.49 67.72 235.09 67.72 225.04 95.34"/><polygon class="cls-10" points="390.6 164.83 390.6 123.46 375.54 164.83 390.6 164.83"/><polygon class="cls-10" points="344.96 100.71 356.97 67.72 340.57 67.72 328.56 100.71 344.96 100.71"/><polygon class="cls-10" points="315.81 135.75 305.22 164.83 321.62 164.83 332.2 135.75 315.81 135.75"/><polygon class="cls-10" points="309.8 100.71 321.81 67.72 305.41 67.72 293.4 100.71 309.8 100.71"/><polygon class="cls-10" points="280.65 135.75 270.07 164.83 286.46 164.83 297.05 135.75 280.65 135.75"/><polygon class="cls-10" points="365.46 135.75 350.96 135.75 340.38 164.83 356.78 164.83 367.36 135.75 365.46 135.75"/><polygon class="cls-10" points="375.73 67.72 363.72 100.71 365.46 100.71 380.12 100.71 390.6 71.92 390.6 67.72 375.73 67.72"/><polygon class="cls-10" points="286.65 67.72 270.25 67.72 258.25 100.71 274.64 100.71 286.65 67.72"/><polygon class="cls-10" points="245.49 135.75 234.91 164.83 251.31 164.83 261.89 135.75 250.18 135.75 245.49 135.75"/><path class="cls-11" d="M235.67,121.23a4.24,4.24,0,0,0,4.24-4.24V65.65l7.4-5.63V47.19l-8.43-6.42V52.41a3.22,3.22,0,1,1-6.43,0V40.77L224,47.19V60l7.41,5.64V117A4.24,4.24,0,0,0,235.67,121.23ZM234.12,117a1.56,1.56,0,1,1,1.55,1.56A1.55,1.55,0,0,1,234.12,117Z"/><path class="cls-12" d="M235.67,118.55a1.56,1.56,0,0,1,0-3.11V55.63a3.22,3.22,0,0,1-3.22-3.22V40.77L224,47.19V60l7.41,5.64V117a4.24,4.24,0,0,0,4.23,4.24Z"/><path class="cls-3" d="M235.67,121.23a4.24,4.24,0,0,0,4.24-4.24V65.65l7.4-5.63V47.19l-8.43-6.42V52.41a3.22,3.22,0,1,1-6.43,0V40.77L224,47.19V60l7.41,5.64V117A4.24,4.24,0,0,0,235.67,121.23ZM234.12,117a1.56,1.56,0,1,1,1.55,1.56A1.55,1.55,0,0,1,234.12,117Z"/><path class="cls-11" d="M151.64,138.32h0a5.2,5.2,0,0,0,5.2-5.21V67.72H146.43v65.39A5.21,5.21,0,0,0,151.64,138.32Z"/><path class="cls-12" d="M146.43,67.72v65.39a5.21,5.21,0,0,0,5.21,5.21V67.72Z"/><path class="cls-13" d="M146.43,84.76h10.41v48.35a5.2,5.2,0,0,1-5.2,5.21h0a5.21,5.21,0,0,1-5.21-5.21Z"/><path class="cls-3" d="M151.64,138.32h0a5.2,5.2,0,0,0,5.2-5.21V67.72H146.43v65.39A5.21,5.21,0,0,0,151.64,138.32Z"/><path class="cls-11" d="M156.84,67.72A7.19,7.19,0,0,1,164,60.54H139.25a7.19,7.19,0,0,1,7.18,7.18Z"/><path class="cls-12" d="M151.64,60.54H139.25a7.19,7.19,0,0,1,7.18,7.18h5.21Z"/><path class="cls-3" d="M156.84,67.72A7.19,7.19,0,0,1,164,60.54H139.25a7.19,7.19,0,0,1,7.18,7.18Z"/><rect class="cls-14" x="139.25" y="47.5" width="24.78" height="13.04"/><path class="cls-15" d="M175.27,60.54a8.55,8.55,0,0,0-11.25,0v-13a8.55,8.55,0,0,0,11.25,0Z"/><rect class="cls-14" x="175.27" y="44.69" width="5.12" height="18.67"/><path class="cls-14" d="M139.25,47.5c-6,0-12.13,3.25-14.6,9.31a.85.85,0,0,0,.91,1.17c2.95-.46,9.8-1,13.69,2.56Z"/><path class="cls-6" d="M117.69,99.12h-5.18v-24a2.58,2.58,0,0,1,2.59-2.58h0a2.58,2.58,0,0,1,2.59,2.58Z"/><path class="cls-6" d="M254.51,99.12h5.18v-24a2.58,2.58,0,0,0-2.59-2.58h0a2.58,2.58,0,0,0-2.59,2.58Z"/><rect class="cls-16" x="105.51" y="104.53" width="161.18" height="80.7"/><rect class="cls-17" x="105.51" y="104.53" width="161.18" height="7.91"/><rect class="cls-3" x="105.51" y="104.53" width="161.18" height="80.7"/><rect class="cls-18" x="99.68" y="99.12" width="172.84" height="5.41"/><rect class="cls-3" x="99.68" y="99.12" width="172.84" height="5.41"/><polygon class="cls-17" points="231.02 124.94 141.18 124.94 141.18 164.83 144.45 164.83 144.45 129.18 231.02 129.18 231.02 124.94"/><rect class="cls-3" x="141.18" y="124.94" width="89.85" height="39.89"/><rect class="cls-3" x="279.89" y="13.74" width="7.34" height="7.34"/><rect class="cls-3" x="45.95" y="64.05" width="7.34" height="7.34"/><rect class="cls-3" x="113.53" y="36.12" width="4.16" height="7.81"/><rect class="cls-3" x="426.62" y="95.21" width="4.16" height="7.81"/><line class="cls-3" x1="31.69" y1="128.71" x2="31.69" y2="137.3"/><line class="cls-3" x1="27.39" y1="133.01" x2="35.98" y2="133.01"/><line class="cls-3" x1="321.09" y1="31.83" x2="321.09" y2="40.42"/><line class="cls-3" x1="316.8" y1="36.12" x2="325.39" y2="36.12"/><line class="cls-3" x1="270.07" y1="42.93" x2="270.07" y2="51.52"/><line class="cls-3" x1="265.77" y1="47.22" x2="274.36" y2="47.22"/><line class="cls-3" x1="405.67" y1="127.16" x2="405.67" y2="135.75"/><line class="cls-3" x1="401.37" y1="131.46" x2="409.96" y2="131.46"/><path class="cls-13" d="M143.4,178.46H29.17a6.78,6.78,0,0,0-6.78,6.77h0A6.78,6.78,0,0,0,29.17,192H143.4a6.77,6.77,0,0,0,6.77-6.78h0A6.77,6.77,0,0,0,143.4,178.46Z"/><path class="cls-19" d="M62.53,185.23a6.77,6.77,0,0,1,6.77-6.77H29.17a6.78,6.78,0,1,0,0,13.55H69.3A6.77,6.77,0,0,1,62.53,185.23Z"/><path class="cls-3" d="M143.4,178.46H29.17a6.78,6.78,0,0,0-6.78,6.77h0A6.78,6.78,0,0,0,29.17,192H143.4a6.77,6.77,0,0,0,6.77-6.78h0A6.77,6.77,0,0,0,143.4,178.46Z"/><path class="cls-20" d="M82.26,44.51l-46.14,134H136.44L90.3,44.51A4.25,4.25,0,0,0,82.26,44.51Z"/><path class="cls-21" d="M85.11,41.8l-.07,0a4.13,4.13,0,0,0-.45.17l-.14,0a2.88,2.88,0,0,0-.38.22l-.18.1a4.46,4.46,0,0,0-.43.33.27.27,0,0,1-.08.07,4.38,4.38,0,0,0-.41.45l0,0a4.59,4.59,0,0,0-.33.52l0,.07a4.51,4.51,0,0,0-.29.67l-46.14,134H69.3l17-136.82A4.66,4.66,0,0,0,85.11,41.8Z"/><path class="cls-3" d="M82.26,44.51l-46.14,134H136.44L90.3,44.51A4.25,4.25,0,0,0,82.26,44.51Z"/><polygon class="cls-13" points="36.13 178.46 86.28 178.46 136.44 178.46 126.17 148.64 46.39 148.64 36.13 178.46"/><polygon class="cls-19" points="46.39 148.64 43.55 156.91 36.13 178.46 69.3 178.46 73 148.64 46.39 148.64"/><polygon class="cls-3" points="36.13 178.46 86.28 178.46 136.44 178.46 126.17 148.64 46.39 148.64 36.13 178.46"/><polygon class="cls-22" points="55.31 122.75 117.25 122.75 106.31 90.98 66.25 90.98 55.31 122.75"/><polygon class="cls-19" points="80.16 90.98 66.25 90.98 63.91 97.79 55.31 122.75 76.22 122.75 80.16 90.98"/><polygon class="cls-3" points="55.31 122.75 117.25 122.75 106.31 90.98 66.25 90.98 55.31 122.75"/><path class="cls-22" d="M82.26,44.51,75.17,65.09H97.39L90.3,44.51A4.25,4.25,0,0,0,82.26,44.51Z"/><path class="cls-19" d="M83.38,65.09l2.91-23.45a4.66,4.66,0,0,0-1.18.16l-.07,0a4.13,4.13,0,0,0-.45.17l-.14,0a2.88,2.88,0,0,0-.38.22l-.18.1a4.46,4.46,0,0,0-.43.33.27.27,0,0,1-.08.07,4.38,4.38,0,0,0-.41.45l0,0a4.59,4.59,0,0,0-.33.52l0,.07a4.51,4.51,0,0,0-.29.67L75.17,65.09Z"/><path class="cls-3" d="M82.26,44.51,75.17,65.09H97.39L90.3,44.51A4.25,4.25,0,0,0,82.26,44.51Z"/><rect class="cls-15" x="111.85" y="193.46" width="16.95" height="5"/><line class="cls-3" x1="116.14" y1="193.46" x2="116.14" y2="198.46"/><line class="cls-3" x1="124.5" y1="193.46" x2="124.5" y2="198.46"/><rect class="cls-15" x="117.39" y="169.7" width="5.86" height="23.77"/><line class="cls-3" x1="117.39" y1="190.16" x2="123.25" y2="191.99"/><line class="cls-3" x1="117.39" y1="187.67" x2="123.25" y2="189.51"/><line class="cls-3" x1="117.39" y1="185.19" x2="123.25" y2="187.02"/><line class="cls-3" x1="117.39" y1="182.7" x2="123.25" y2="184.54"/><line class="cls-3" x1="117.39" y1="180.22" x2="123.25" y2="182.05"/><line class="cls-3" x1="117.39" y1="177.73" x2="123.25" y2="179.57"/><line class="cls-3" x1="117.39" y1="175.25" x2="123.25" y2="177.08"/><line class="cls-3" x1="117.39" y1="172.76" x2="123.25" y2="174.6"/><line class="cls-3" x1="117.39" y1="170.28" x2="123.25" y2="172.11"/><rect class="cls-15" x="133.51" y="186.99" width="16.95" height="5" transform="translate(361.53 100.79) rotate(104.84)"/><line class="cls-3" x1="145.47" y1="186.09" x2="140.64" y2="184.81"/><line class="cls-3" x1="143.33" y1="194.17" x2="138.5" y2="192.89"/><rect class="cls-15" x="152.96" y="181.29" width="5.86" height="23.77" transform="translate(382.55 91.98) rotate(104.84)"/><line class="cls-3" x1="148.35" y1="188.15" x2="145.07" y2="193.34"/><line class="cls-3" x1="150.75" y1="188.78" x2="147.47" y2="193.97"/><line class="cls-3" x1="153.15" y1="189.42" x2="149.88" y2="194.61"/><line class="cls-3" x1="155.55" y1="190.06" x2="152.28" y2="195.25"/><line class="cls-3" x1="157.96" y1="190.69" x2="154.68" y2="195.88"/><line class="cls-3" x1="160.36" y1="191.33" x2="157.08" y2="196.52"/><line class="cls-3" x1="162.76" y1="191.97" x2="159.48" y2="197.16"/><line class="cls-3" x1="165.16" y1="192.6" x2="161.89" y2="197.79"/><line class="cls-3" x1="167.56" y1="193.24" x2="164.29" y2="198.43"/><path class="cls-2" d="M262.06,178.46H224.89a10.77,10.77,0,0,0-10.78,10.77h0A10.77,10.77,0,0,0,224.89,200h37.17l11.24-4.84V183.3Z"/><polygon class="cls-23" points="270.07 196.56 273.3 195.17 273.3 183.3 270.07 181.91 270.07 196.56"/><path class="cls-3" d="M262.06,178.46H224.89a10.77,10.77,0,0,0-10.78,10.77h0A10.77,10.77,0,0,0,224.89,200h37.17l11.24-4.84V183.3Z"/><rect class="cls-24" x="273.3" y="179.94" width="6.25" height="18.59"/><polygon class="cls-15" points="364.96 184.19 360.27 187.2 279.55 187.2 279.55 191.26 360.27 191.26 364.96 194.28 376.07 191.02 376.07 187.45 364.96 184.19"/><line class="cls-25" x1="262.06" y1="178.46" x2="262.06" y2="200.01"/><line class="cls-3" x1="256.43" y1="189.23" x2="221.76" y2="189.23"/><line class="cls-3" x1="256.43" y1="194.39" x2="224.03" y2="194.39"/><line class="cls-3" x1="256.43" y1="184.08" x2="224.03" y2="184.08"/><line class="cls-3" x1="377.72" y1="207.73" x2="393.03" y2="207.73"/><line class="cls-3" x1="366.63" y1="207.73" x2="373.82" y2="207.73"/><line class="cls-3" x1="277.76" y1="207.73" x2="362.1" y2="207.73"/><line class="cls-3" x1="178.1" y1="225.89" x2="162.79" y2="225.89"/><line class="cls-3" x1="189.19" y1="225.89" x2="182" y2="225.89"/><line class="cls-3" x1="157.07" y1="225.89" x2="66.7" y2="225.89"/><line class="cls-3" x1="161.06" y1="213.72" x2="145.66" y2="213.72"/><line class="cls-3" x1="236.02" y1="213.72" x2="168.26" y2="213.72"/><line class="cls-3" x1="278.06" y1="225.89" x2="193.72" y2="225.89"/><line class="cls-3" x1="76.84" y1="212.47" x2="84.02" y2="212.47"/><line class="cls-3" x1="9.87" y1="212.47" x2="72.31" y2="212.47"/></svg>